<?xml version="1.0" standalone="no"?>
<!DOCTYPE svg PUBLIC "-//W3C//DTD SVG 20010904//EN"
 "http://www.w3.org/TR/2001/REC-SVG-20010904/DTD/svg10.dtd">
<svg version="1.0" xmlns="http://www.w3.org/2000/svg"
 width="1280.000000pt" height="1280.000000pt" viewBox="0 0 1280.000000 1280.000000"
 preserveAspectRatio="xMidYMid meet">
<metadata>
Created by potrace 1.15, written by Peter Selinger 2001-2017
</metadata>
<g transform="translate(0.000000,1280.000000) scale(0.100000,-0.100000)"
fill="#000000" stroke="none">
<path d="M5105 12145 c-223 -50 -360 -173 -409 -366 -24 -96 -22 -293 4 -395
22 -86 75 -183 139 -256 l41 -46 0 -1964 0 -1963 -35 -58 c-19 -32 -35 -62
-35 -68 0 -5 -4 -9 -9 -9 -5 0 -11 -8 -15 -17 -7 -22 -40 -80 -160 -283 -50
-86 -102 -177 -116 -203 -13 -26 -28 -47 -32 -47 -5 0 -8 -4 -8 -10 0 -9 -129
-242 -147 -266 -16 -20 -33 -49 -39 -64 -3 -8 -9 -22 -14 -30 -5 -8 -30 -51
-55 -95 -25 -44 -54 -93 -65 -110 -10 -16 -28 -47 -39 -67 -37 -67 -46 -83
-52 -88 -3 -3 -11 -19 -18 -36 -7 -18 -20 -40 -29 -51 -9 -10 -29 -41 -44 -68
-80 -148 -101 -184 -117 -201 -9 -11 -20 -26 -25 -34 -18 -36 -134 -240 -156
-275 -11 -16 -23 -37 -27 -45 -3 -8 -17 -32 -30 -52 -13 -21 -37 -64 -54 -95
-17 -32 -34 -60 -38 -63 -3 -3 -14 -21 -25 -40 -63 -120 -159 -286 -167 -288
-5 -2 -9 -8 -9 -13 0 -6 -25 -54 -57 -107 -31 -53 -63 -110 -72 -125 -9 -16
-21 -36 -26 -45 -6 -9 -30 -53 -54 -97 -40 -71 -79 -138 -118 -200 -7 -11 -25
-42 -39 -70 -15 -27 -61 -109 -104 -180 -42 -72 -87 -150 -100 -175 -12 -25
-26 -47 -30 -50 -3 -3 -10 -12 -14 -20 -8 -16 -15 -29 -89 -160 -58 -104 -70
-124 -78 -130 -3 -3 -12 -17 -20 -32 -58 -109 -82 -153 -104 -188 -14 -22 -25
-44 -25 -50 0 -5 -3 -10 -8 -10 -4 0 -17 -19 -28 -43 -12 -23 -34 -68 -50 -99
-16 -32 -32 -58 -36 -58 -5 0 -8 -5 -8 -11 0 -6 -20 -43 -43 -82 -24 -40 -63
-108 -86 -152 -24 -44 -47 -81 -52 -83 -5 -2 -9 -8 -9 -12 0 -5 -29 -58 -64
-118 -35 -60 -67 -119 -71 -131 -3 -11 -10 -21 -15 -21 -4 0 -10 -8 -14 -18
-3 -9 -15 -30 -26 -47 -11 -16 -24 -39 -29 -51 -5 -11 -30 -55 -55 -98 -25
-43 -46 -82 -46 -87 0 -5 -4 -9 -9 -9 -5 0 -13 -10 -17 -22 -4 -13 -18 -40
-31 -60 -13 -21 -37 -64 -54 -95 -17 -32 -34 -60 -38 -63 -3 -3 -15 -23 -26
-45 -11 -22 -25 -47 -31 -55 -11 -15 -47 -77 -88 -155 -39 -73 -48 -116 -43
-205 5 -96 14 -139 34 -158 7 -7 13 -19 13 -25 0 -11 22 -41 62 -84 38 -41 57
-53 113 -80 l60 -28 4705 0 4705 0 60 28 c61 28 175 134 175 162 0 8 6 20 13
27 43 43 48 272 7 333 -4 6 -26 46 -50 90 -23 44 -47 87 -54 95 -6 8 -20 33
-31 55 -11 22 -23 42 -26 45 -4 3 -21 31 -38 63 -17 31 -41 74 -54 95 -13 20
-27 47 -31 60 -4 12 -12 22 -17 22 -5 0 -9 4 -9 9 0 5 -21 44 -46 87 -25 43
-50 87 -55 98 -5 12 -18 35 -29 51 -11 17 -23 38 -26 48 -4 9 -10 17 -14 17
-5 0 -12 10 -15 21 -4 12 -36 71 -71 131 -35 60 -64 113 -64 118 0 4 -4 10 -9
12 -5 2 -28 39 -52 83 -23 44 -62 112 -86 152 -23 39 -43 76 -43 82 0 6 -3 11
-8 11 -4 0 -22 28 -40 63 -18 34 -42 76 -53 92 -10 17 -22 38 -25 47 -4 10
-10 18 -15 18 -5 0 -9 4 -9 9 0 5 -27 57 -60 115 -33 58 -60 110 -60 116 0 5
-4 10 -10 10 -5 0 -10 5 -10 12 0 6 -6 19 -14 27 -12 14 -38 60 -102 181 -11
19 -21 37 -24 40 -11 10 -69 107 -110 185 -23 44 -48 87 -56 96 -8 8 -14 18
-14 21 0 5 -84 156 -111 198 -5 8 -14 24 -19 35 -6 11 -19 34 -30 50 -10 17
-41 68 -67 115 -70 124 -81 143 -89 160 -4 8 -10 17 -14 20 -4 3 -20 30 -36
60 -62 113 -87 155 -100 171 -8 8 -14 19 -14 22 0 4 -10 24 -23 45 -13 20 -37
62 -54 92 -62 114 -86 155 -93 165 -4 6 -33 55 -64 110 -31 55 -61 107 -67
115 -5 8 -12 23 -15 33 -4 9 -9 17 -13 17 -4 0 -15 17 -26 38 -17 34 -173 307
-223 392 -11 19 -31 55 -44 80 -13 25 -31 53 -40 64 -9 10 -22 32 -29 50 -7
17 -15 33 -18 36 -6 5 -15 21 -52 88 -11 20 -29 51 -39 67 -18 28 -101 171
-119 205 -4 8 -13 24 -19 35 -7 11 -15 27 -19 35 -4 8 -15 24 -25 34 -10 11
-18 24 -18 29 0 5 -27 56 -60 113 -33 57 -60 108 -60 114 0 5 -3 10 -7 10 -8
0 -26 28 -72 115 -45 82 -83 149 -94 163 -16 20 -147 254 -147 263 0 4 -3 9
-7 11 -5 2 -18 22 -30 44 l-23 42 0 1994 0 1995 25 29 c43 49 92 136 115 204
30 88 39 340 17 447 -41 191 -162 321 -342 368 -52 13 -219 15 -1330 14 -1023
0 -1282 -3 -1330 -14z m2586 -414 c16 -20 19 -40 19 -137 0 -78 -5 -126 -15
-150 -19 -46 -74 -99 -119 -114 l-36 -12 0 -2159 0 -2160 42 -77 c23 -42 44
-79 48 -82 3 -3 17 -26 30 -52 14 -25 51 -90 83 -144 31 -53 57 -100 57 -104
0 -4 7 -13 15 -20 8 -7 15 -21 15 -31 0 -11 3 -19 8 -19 7 0 21 -23 72 -115
15 -27 37 -66 49 -85 11 -19 24 -42 28 -50 4 -8 28 -49 53 -90 25 -41 56 -95
69 -120 34 -63 43 -80 73 -125 14 -23 38 -63 53 -90 14 -28 35 -63 46 -80 10
-16 22 -36 26 -44 3 -8 34 -62 68 -121 34 -59 65 -113 68 -121 4 -8 18 -32 32
-54 14 -22 28 -47 32 -55 4 -8 33 -59 65 -113 32 -54 58 -100 58 -103 0 -2 15
-27 33 -56 19 -29 44 -74 57 -100 13 -27 27 -48 32 -48 4 0 8 -4 8 -9 0 -7
159 -292 177 -317 9 -11 23 -35 61 -103 13 -25 37 -65 52 -90 14 -26 29 -53
33 -61 4 -8 16 -28 27 -45 11 -16 23 -37 27 -45 3 -8 14 -26 23 -40 10 -14 33
-55 53 -92 50 -92 61 -112 68 -118 5 -5 43 -72 102 -180 17 -30 34 -56 39 -58
4 -2 8 -8 8 -12 0 -5 28 -57 63 -117 35 -59 66 -115 70 -123 4 -8 16 -28 27
-45 10 -16 25 -41 33 -55 46 -84 83 -150 104 -182 12 -21 23 -42 23 -47 0 -5
4 -11 8 -13 5 -1 30 -43 57 -93 26 -49 51 -92 54 -95 3 -3 13 -19 22 -35 9
-17 42 -74 73 -127 31 -53 56 -102 56 -107 0 -6 4 -11 9 -11 5 0 12 -11 15
-25 4 -14 11 -25 16 -25 6 0 10 -7 10 -15 0 -8 5 -15 10 -15 6 0 10 -5 10 -11
0 -9 56 -109 145 -260 14 -24 36 -63 75 -134 18 -33 36 -62 39 -65 3 -3 15
-23 26 -45 11 -22 22 -42 26 -45 5 -5 27 -43 102 -180 16 -30 33 -56 38 -58 5
-2 9 -8 9 -13 0 -4 21 -43 46 -86 25 -43 50 -87 55 -98 5 -11 18 -33 29 -50
11 -16 24 -39 30 -50 5 -11 14 -27 20 -35 30 -45 140 -243 140 -251 0 -5 4 -9
9 -9 5 0 14 -14 21 -30 7 -17 28 -55 46 -85 l33 -55 -4579 0 -4579 0 33 55
c18 30 39 68 46 85 7 16 16 30 21 30 5 0 9 4 9 9 0 8 110 206 140 251 6 8 15
24 20 35 6 11 19 34 30 50 11 17 24 39 29 50 5 11 30 55 55 98 25 43 46 82 46
86 0 5 4 11 9 13 5 2 22 28 38 58 75 137 97 175 102 180 4 3 15 23 26 45 11
22 23 42 26 45 3 3 21 32 39 65 39 71 61 110 75 134 89 151 145 251 145 260 0
6 5 11 10 11 6 0 10 7 10 15 0 8 4 15 10 15 5 0 12 11 16 25 3 14 10 25 15 25
5 0 9 5 9 11 0 5 25 54 56 107 31 53 64 110 73 127 9 16 19 32 22 35 3 3 28
46 54 95 27 50 52 92 57 93 4 2 8 8 8 13 0 5 11 26 23 47 21 32 58 98 104 182
8 14 23 39 33 55 11 17 23 37 27 45 4 8 35 64 70 123 35 60 63 112 63 117 0 4
4 10 8 12 5 1 22 28 39 58 59 108 97 175 102 180 7 6 18 26 68 118 20 37 43
78 53 92 9 14 20 32 23 40 4 8 16 29 27 45 11 17 23 37 27 45 4 8 19 35 33 61
15 25 39 65 52 90 38 68 52 92 61 103 18 25 177 310 177 317 0 5 4 9 8 9 5 0
19 21 32 48 13 26 38 71 57 100 18 29 33 54 33 56 0 3 26 49 58 103 32 54 61
105 65 113 4 8 18 33 32 55 14 22 28 46 32 54 3 8 34 62 68 121 34 59 65 113
68 121 4 8 16 28 26 44 11 17 32 52 46 80 15 27 39 67 53 90 30 45 39 62 73
125 13 25 44 79 69 120 25 41 49 82 53 90 4 8 17 31 28 50 12 19 34 58 49 85
51 92 65 115 73 115 4 0 7 8 7 19 0 10 7 24 15 31 8 7 15 16 15 20 0 5 27 53
59 107 33 54 70 118 83 143 13 25 26 47 29 50 3 3 8 12 12 22 3 9 28 53 56 98
l51 82 0 2138 0 2138 -30 7 c-46 10 -125 78 -149 127 -17 36 -21 63 -21 142 0
89 2 99 24 121 13 13 41 27 62 30 22 4 44 8 49 10 6 2 558 3 1228 2 l1219 -2
19 -24z"/>
<path d="M6722 8767 c-48 -15 -119 -82 -144 -136 -12 -25 -24 -74 -26 -107 -4
-53 0 -70 27 -127 36 -75 82 -119 150 -142 128 -43 269 12 326 129 22 46 27
69 27 130 0 63 -5 83 -28 127 -34 61 -94 113 -149 128 -49 13 -139 13 -183 -2z"/>
<path d="M7060 7880 c-102 -47 -160 -139 -160 -251 0 -55 6 -77 33 -130 50
-100 136 -146 255 -137 143 10 242 120 242 268 -1 106 -54 195 -145 242 -60
31 -167 35 -225 8z"/>
<path d="M6095 7364 c-84 -34 -153 -89 -202 -162 -50 -74 -63 -112 -70 -208
-14 -186 106 -355 299 -420 122 -42 244 -29 367 36 77 41 134 103 174 188 30
63 32 74 32 177 0 101 -2 115 -29 170 -53 106 -140 184 -252 224 -88 31 -236
29 -319 -5z"/>
<path d="M5375 6658 c-57 -21 -109 -63 -140 -112 -26 -43 -30 -61 -33 -132 -3
-65 0 -91 15 -125 48 -107 124 -154 248 -154 91 1 137 19 191 77 56 59 69 94
69 188 0 94 -13 129 -69 188 -48 52 -101 75 -181 78 -38 2 -83 -1 -100 -8z"/>
<path d="M6863 6566 c-105 -39 -193 -118 -240 -214 -26 -53 -28 -66 -28 -182
0 -118 2 -128 29 -179 36 -69 127 -160 189 -190 251 -121 538 -14 628 233 14
36 19 78 19 144 0 82 -4 100 -30 160 -49 108 -144 194 -258 233 -81 28 -226
26 -309 -5z"/>
<path d="M5955 6069 c-164 -81 -204 -293 -82 -427 61 -66 101 -82 199 -82 74
0 89 4 135 30 153 88 178 309 48 429 -24 22 -60 47 -81 56 -53 22 -169 19
-219 -6z"/>
<path d="M4695 5304 c-26 -49 -51 -90 -56 -92 -5 -2 -9 -10 -9 -18 0 -8 -5
-20 -10 -27 -6 -7 -43 -68 -82 -137 -39 -69 -81 -143 -94 -165 -12 -22 -39
-71 -59 -109 -20 -37 -51 -91 -69 -120 -18 -28 -59 -98 -91 -156 -31 -58 -60
-107 -64 -110 -3 -3 -15 -23 -26 -45 -11 -22 -48 -88 -82 -148 -35 -59 -63
-112 -63 -118 0 -5 -4 -9 -10 -9 -5 0 -10 -5 -10 -10 0 -6 -27 -57 -60 -114
-33 -57 -60 -109 -60 -115 0 -6 -4 -11 -10 -11 -5 0 -10 -7 -10 -15 0 -8 -4
-15 -9 -15 -5 0 -15 -15 -21 -34 -6 -19 -14 -36 -18 -38 -4 -2 -25 -37 -46
-78 -21 -41 -44 -82 -51 -90 -7 -8 -27 -42 -45 -75 -78 -142 -109 -196 -138
-240 -6 -11 -15 -27 -19 -35 -7 -17 -98 -176 -114 -200 -5 -8 -12 -23 -15 -32
-4 -10 -10 -18 -15 -18 -5 0 -9 -5 -9 -10 0 -6 -27 -58 -60 -116 -33 -58 -60
-110 -60 -115 0 -5 -4 -9 -9 -9 -5 0 -11 -8 -15 -17 -3 -10 -21 -45 -41 -78
-19 -33 -50 -87 -68 -119 -17 -32 -36 -66 -42 -75 -11 -17 -66 -113 -103 -176
-12 -22 -27 -52 -33 -67 -6 -16 -14 -28 -19 -28 -4 0 -11 -8 -14 -17 -3 -10
-12 -27 -19 -38 -7 -11 -36 -63 -65 -115 -29 -52 -62 -111 -74 -130 -33 -56
-121 -213 -132 -237 -6 -13 -14 -23 -18 -23 -5 0 -8 -4 -8 -9 0 -6 -16 -37
-35 -70 -19 -32 -35 -64 -35 -70 0 -8 1116 -11 3920 -11 2443 0 3920 4 3920 9
0 6 -4 12 -8 15 -4 3 -21 31 -37 63 -16 32 -37 67 -47 77 -10 11 -18 24 -18
28 0 5 -27 56 -60 115 -33 58 -60 109 -60 114 0 5 -4 9 -8 9 -4 0 -30 42 -56
93 -27 50 -63 115 -81 142 -17 28 -53 91 -80 140 -26 50 -51 92 -54 95 -4 3
-18 26 -31 51 -14 26 -47 84 -73 130 -26 46 -52 92 -57 102 -6 9 -15 25 -20
35 -6 9 -13 24 -17 32 -4 8 -10 17 -13 20 -4 3 -19 28 -33 55 -14 28 -46 85
-71 128 -25 43 -46 80 -46 83 0 3 -5 10 -10 17 -6 7 -37 59 -69 117 -83 150
-102 184 -111 195 -4 6 -22 37 -40 70 -52 95 -70 128 -90 160 -41 65 -100 175
-100 185 0 5 -4 10 -9 10 -5 0 -14 12 -20 28 -12 30 -29 59 -48 80 -7 7 -13
17 -13 22 0 5 -29 59 -65 121 -36 61 -65 116 -65 120 0 5 -3 9 -8 9 -4 0 -13
13 -20 30 -8 16 -40 76 -73 132 -32 57 -59 106 -59 111 0 4 -8 17 -19 28 -10
11 -30 43 -45 72 -15 29 -40 75 -56 102 -16 28 -35 61 -43 75 -8 14 -31 54
-52 90 -20 36 -41 74 -46 85 -5 11 -18 34 -29 50 -11 17 -24 39 -30 50 -5 11
-14 27 -20 35 -13 19 -104 180 -113 200 -4 8 -17 31 -29 50 -11 19 -37 64 -57
100 -20 36 -40 73 -46 82 -9 15 -144 17 -1666 24 l-1656 7 -48 -89z"/>
</g>
</svg>
